<?xml version="1.0" encoding="utf-8"?>
<!-- Generator: Adobe Illustrator 19.2.0, SVG Export Plug-In . SVG Version: 6.00 Build 0)  -->
<!DOCTYPE svg PUBLIC "-//W3C//DTD SVG 1.1//EN" "http://www.w3.org/Graphics/SVG/1.1/DTD/svg11.dtd">
<svg version="1.1" id="Layer_1" xmlns="http://www.w3.org/2000/svg" xmlns:xlink="http://www.w3.org/1999/xlink" x="0px" y="0px"
	 viewBox="0 0 72 44" style="enable-background:new 0 0 72 44;" xml:space="preserve">
<style type="text/css">
	.st0{fill:#122D98;}
	.st1{fill:#FFFFFF;}
</style>
<g>
	<g>
		<path class="st0" d="M72,40c0,2.2-1.8,4-4,4H4c-2.2,0-4-1.8-4-4V4c0-2.2,1.8-4,4-4h64c2.2,0,4,1.8,4,4V40z"/>
	</g>
	<path class="st1" d="M30.6,15l-5.7,14h-3.7l-2.8-10.9c-0.2-0.7-0.3-1-0.8-1.2c-0.8-0.5-2.2-1-3.5-1.3l0.1-0.5h6
		c0.8,0,1.4,0.6,1.6,1.5l1.5,7.8l3.6-9.3H30.6z M45.1,24.4c0-3.6-4.9-3.8-4.9-5.4c0-0.5,0.5-1,1.5-1.1c0.5-0.1,1.9-0.1,3.5,0.6
		l0.6-2.9c-0.8-0.3-1.9-0.6-3.3-0.6c-3.5,0-5.9,1.8-5.9,4.5c0,2,1.7,3,3.1,3.7c1.4,0.7,1.8,1.1,1.8,1.7c0,0.9-1.1,1.3-2.1,1.3
		c-1.8,0-2.8-0.5-3.6-0.9l-0.6,3C36,28.7,37.5,29,39,29C42.7,29,45.1,27.2,45.1,24.4 M54.3,29h3.2l-2.8-14h-3
		c-0.7,0-1.2,0.6-1.5,1.2L44.9,29h3.7l0.7-3h4.5L54.3,29z M50.4,23l1.8-5.1l1.1,5.1H50.4z M35.6,15l-2.9,14h-3.5l2.9-14H35.6z"/>
</g>
</svg>
