<?xml version="1.0" encoding="utf-8"?>
<!-- Generator: Adobe Illustrator 19.2.0, SVG Export Plug-In . SVG Version: 6.00 Build 0)  -->
<!DOCTYPE svg PUBLIC "-//W3C//DTD SVG 1.1//EN" "http://www.w3.org/Graphics/SVG/1.1/DTD/svg11.dtd">
<svg version="1.1" id="Layer_1" xmlns="http://www.w3.org/2000/svg" xmlns:xlink="http://www.w3.org/1999/xlink" x="0px" y="0px"
	 viewBox="0 0 72 44" style="enable-background:new 0 0 72 44;" xml:space="preserve">
<style type="text/css">
	.st0{fill:#C73691;}
	.st1{fill:#FFFFFF;}
</style>
<g>
	<path class="st0" d="M72,40c0,2.2-1.8,4-4,4H4c-2.2,0-4-1.8-4-4V4c0-2.2,1.8-4,4-4h64c2.2,0,4,1.8,4,4V40z"/>
</g>
<path class="st1" d="M39.9,19.8c2.2,3.4,1.3,8-2.2,10.2c-3.4,2.2-8,1.3-10.2-2.2l2.1-1.4c1.4,2.2,4.4,2.8,6.6,1.4
	c2.2-1.4,2.8-4.4,1.4-6.6L39.9,19.8z"/>
<path d="M44.8,16.7c-2.2-3.4-6.8-4.4-10.2-2.1c-3.4,2.2-4.4,6.8-2.1,10.2l2.2-1.4c-1.4-2.2-0.8-5.2,1.4-6.6c2.2-1.4,5.2-0.8,6.6,1.4
	L44.8,16.7z"/>
<path class="st1" d="M22,22c0-7.7,6.3-14,14-14c7.7,0,14,6.3,14,14s-6.3,14-14,14C28.3,36,22,29.7,22,22z M36,35c7.2,0,13-5.8,13-13
	S43.2,9,36,9c-7.2,0-13,5.8-13,13S28.8,35,36,35z"/>
</svg>
