<?xml version="1.0" encoding="utf-8"?>
<!-- Generator: Adobe Illustrator 19.2.0, SVG Export Plug-In . SVG Version: 6.00 Build 0)  -->
<!DOCTYPE svg PUBLIC "-//W3C//DTD SVG 1.1//EN" "http://www.w3.org/Graphics/SVG/1.1/DTD/svg11.dtd">
<svg version="1.1" id="Layer_1" xmlns="http://www.w3.org/2000/svg" xmlns:xlink="http://www.w3.org/1999/xlink" x="0px" y="0px"
	 viewBox="0 0 72 44" style="enable-background:new 0 0 72 44;" xml:space="preserve">
<style type="text/css">
	.st0{fill:#25257C;}
	.st1{fill:#ED1C2E;}
	.st2{fill:#009DDD;}
</style>
<path class="st0" d="M68,44H4c-2.2,0-4-1.8-4-4V4c0-2.2,1.8-4,4-4h64c2.2,0,4,1.8,4,4v36C72,42.2,70.2,44,68,44z"/>
<g>
	<circle class="st1" cx="44.8" cy="22" r="14"/>
	<circle class="st2" cx="27" cy="22" r="14"/>
	<g>
		<path class="st1" d="M33.5,14H42v-2.7h-6C35.1,12.1,34.2,13,33.5,14z"/>
		<path class="st1" d="M42,20H31.2c-0.1,0.7-0.2,1.3-0.2,2h11V20z"/>
		<path class="st1" d="M42,30v-2h-9.6c0.3,0.7,0.7,1.4,1.2,2H42z"/>
		<path class="st1" d="M42,26v-2H31.2c0.1,0.7,0.2,1.4,0.4,2H42z"/>
		<path class="st1" d="M42,16h-9.6c-0.3,0.6-0.6,1.3-0.8,2H42V16z"/>
	</g>
</g>
</svg>
