<?xml version="1.0" encoding="utf-8"?>
<!-- Generator: Adobe Illustrator 19.2.0, SVG Export Plug-In . SVG Version: 6.00 Build 0)  -->
<!DOCTYPE svg PUBLIC "-//W3C//DTD SVG 1.1//EN" "http://www.w3.org/Graphics/SVG/1.1/DTD/svg11.dtd">
<svg version="1.1" id="Layer_1" xmlns="http://www.w3.org/2000/svg" xmlns:xlink="http://www.w3.org/1999/xlink" x="0px" y="0px"
	 viewBox="0 0 72 44" style="enable-background:new 0 0 72 44;" xml:space="preserve">
<style type="text/css">
	.st0{fill:#19A3DC;}
	.st1{fill-rule:evenodd;clip-rule:evenodd;fill:#FFFFFF;}
	.st2{fill-rule:evenodd;clip-rule:evenodd;fill:#19A3DC;}
</style>
<g>
	<path class="st0" d="M68,44H4c-2.2,0-4-1.8-4-4V4c0-2.2,1.8-4,4-4h64c2.2,0,4,1.8,4,4v36C72,42.2,70.2,44,68,44z"/>
	<g>
		<path class="st1" d="M7.1,21l3.8-9h4l0.6,1.1V12h4.7l1.1,2.3l1-2.3h14.9c0.7,0,1.3,0.1,1.7,0.5V12H43v0.5c0.7-0.4,1.6-0.5,2.6-0.5
			h5.9l0.6,1.1V12h4.4l0.6,1.1V12h4.3v9h-4.3l-0.8-1.4V21h-5.4l-0.6-1.5h-1.3L48.2,21h-2.8c-1.1,0-1.9-0.3-2.5-0.6V21h-6.7v-2.1
			c0-0.3,0-0.3-0.2-0.3h-0.2V21H23v-1.2L22.5,21h-2.7l-0.5-1.1V21h-5.2l-0.6-1.5h-1.3L11.7,21L7.1,21z"/>
		<path class="st1" d="M64.5,26.9L64.5,26.9l0.1-1.7V23v0h-4v0h-0.2c-0.8,0-1.5,0.2-1.9,0.5V23h-4.2c-0.7,0-1.5,0.2-1.9,0.5V23h-7.4
			v0.5c-0.6-0.5-1.6-0.5-2.1-0.5h-4.9v0.5c-0.5-0.5-1.5-0.5-2.1-0.5h-5.5l-1.3,1.4L27.7,23h-8.2v9h8.1l1.3-1.4l1.2,1.4h5v-2.1h0.5
			c0.7,0,1.5,0,2.1-0.3V32h4.1v-2.3H42c0.2,0,0.3,0,0.3,0.3V32h12.5c0.8,0,1.6-0.2,2.1-0.5V32h4l0,0h0.2c1.1,0,2-0.2,2.7-0.8
			c0.5-0.4,1.1-1.2,1.1-2.6C64.9,28,64.8,27.4,64.5,26.9z"/>
		<path class="st2" d="M63.5,28.7c0,1.4-0.9,2-2.4,2h-3v-1.4h3c0.3,0,0.5,0,0.6-0.1c0.1-0.1,0.2-0.2,0.2-0.4c0-0.2-0.1-0.4-0.2-0.5
			c-0.1-0.1-0.3-0.1-0.5-0.1c-1.4,0-3.2,0-3.2-2c0-0.9,0.6-1.9,2.2-1.9h3.1v1.4h-2.8c-0.3,0-0.5,0-0.6,0.1c-0.1,0.1-0.2,0.3-0.2,0.5
			c0,0.2,0.1,0.4,0.3,0.5c0.2,0,0.4,0.1,0.6,0.1h0.8c0.9,0,1.4,0.2,1.8,0.5C63.3,27.6,63.5,28,63.5,28.7 M57.1,27.3
			c-0.4-0.3-0.9-0.5-1.8-0.5h-0.8c-0.2,0-0.4,0-0.6-0.1c-0.2-0.1-0.3-0.2-0.3-0.5c0-0.2,0-0.4,0.2-0.5c0.1-0.1,0.3-0.1,0.6-0.1h2.8
			v-1.4h-3.1c-1.6,0-2.2,1-2.2,1.9c0,2,1.8,1.9,3.2,2c0.3,0,0.5,0,0.5,0.1c0.1,0.1,0.2,0.3,0.2,0.5c0,0.2-0.1,0.3-0.2,0.4
			c-0.1,0.1-0.3,0.1-0.6,0.1h-3v1.4h3c1.6,0,2.4-0.6,2.4-2C57.5,28,57.3,27.6,57.1,27.3 M51.2,29.4h-3.6v-1.3h3.5v-1.3h-3.5v-1.2
			h3.6v-1.3h-5.1v6.4h5.1V29.4z M44.4,24.6c-0.5-0.3-1.1-0.3-1.9-0.3H39v6.4h1.6v-2.3h1.6c0.5,0,0.9,0,1.1,0.3
			c0.3,0.3,0.3,0.9,0.3,1.3v0.8h1.5v-1.2c0-0.6,0-0.9-0.2-1.2c-0.1-0.2-0.4-0.4-0.8-0.6c0.4-0.1,1.1-0.7,1.1-1.7
			C45.2,25.3,44.9,24.9,44.4,24.6 M35.7,24.3h-4.9l-2,2.1L27,24.3h-6.2v6.4h6.1l2-2.1l1.9,2.1h3v-2.2h1.9c1.3,0,2.6-0.4,2.6-2.2
			C38.3,24.6,36.9,24.3,35.7,24.3 M43.2,26.9C43,27,42.7,27,42.5,27l-1.9,0v-1.5h1.9c0.3,0,0.5,0,0.7,0.1c0.2,0.1,0.3,0.3,0.3,0.6
			C43.5,26.6,43.4,26.8,43.2,26.9 M35.7,27.3h-2v-1.6h2c0.5,0,0.9,0.2,0.9,0.8C36.7,26.9,36.3,27.3,35.7,27.3 M29.8,27.5l2.4-2.5
			v5.2L29.8,27.5z M26.1,29.4h-3.8v-1.3h3.4v-1.3h-3.4v-1.2h3.8l1.7,1.9L26.1,29.4z"/>
		<path class="st2" d="M59.9,19.7h-2.2l-2.9-4.8v4.8h-3.1l-0.6-1.4h-3.2l-0.6,1.4h-1.8c-0.7,0-1.7-0.2-2.3-0.7
			c-0.5-0.6-0.8-1.3-0.8-2.4c0-1,0.1-1.8,0.8-2.5c0.5-0.5,1.3-0.7,2.3-0.7h1.5v1.4h-1.5c-0.6,0-0.9,0.1-1.2,0.4
			c-0.3,0.3-0.4,0.8-0.4,1.5c0,0.7,0.1,1.2,0.4,1.5c0.2,0.2,0.6,0.3,1.1,0.3h0.7l2.2-5.1h2.3l2.6,6.1v-6.1h2.4l2.7,4.5v-4.5h1.6
			V19.7z M41.7,13.3h-1.6v6.4h1.6V13.3z M38.4,13.6c-0.5-0.3-1.1-0.3-1.8-0.3H33v6.4h1.5v-2.3h1.7c0.6,0,0.9,0,1.2,0.3
			c0.3,0.3,0.2,0.9,0.2,1.2v0.8h1.6v-1.3c0-0.6,0-0.8-0.3-1.2c-0.1-0.2-0.4-0.4-0.7-0.6c0.4-0.2,1.1-0.7,1.1-1.7
			C39.2,14.3,38.9,13.9,38.4,13.6 M31.9,18.4h-3.6v-1.3h3.5v-1.3h-3.5v-1.2h3.6v-1.3h-5.1v6.4h5.1V18.4z M25.6,13.3h-2.5l-1.9,4.4
			l-2-4.4h-2.5v6.1l-2.6-6.1h-2.3l-2.8,6.4h1.7l0.6-1.4h3.2l0.6,1.4h3.1v-5l2.3,5h1.3l2.3-5v5h1.6V13.3z M50.5,16.9l-1.1-2.5
			l-1.1,2.5H50.5z M37.2,15.9C37,16,36.8,16,36.4,16h-1.9v-1.4h1.9c0.3,0,0.6,0,0.8,0.1c0.2,0.1,0.3,0.3,0.3,0.6
			C37.5,15.6,37.4,15.8,37.2,15.9 M11.9,16.9l1.1-2.5l1.1,2.5H11.9z"/>
	</g>
</g>
</svg>
