<?xml version="1.0" encoding="utf-8"?>
<!-- Generator: Adobe Illustrator 19.2.0, SVG Export Plug-In . SVG Version: 6.00 Build 0)  -->
<!DOCTYPE svg PUBLIC "-//W3C//DTD SVG 1.1//EN" "http://www.w3.org/Graphics/SVG/1.1/DTD/svg11.dtd">
<svg version="1.1" id="Layer_1" xmlns="http://www.w3.org/2000/svg" xmlns:xlink="http://www.w3.org/1999/xlink" x="0px" y="0px"
	 viewBox="0 0 72 44" style="enable-background:new 0 0 72 44;" xml:space="preserve">
<style type="text/css">
	.st0{fill:#DCE4ED;}
	.st1{fill:#004C95;}
	.st2{fill:#FFFFFF;}
</style>
<g>
	<path class="st0" d="M68,44H4c-2.2,0-4-1.8-4-4V4c0-2.2,1.8-4,4-4h64c2.2,0,4,1.8,4,4v36C72,42.2,70.2,44,68,44z"/>
</g>
<g>
	<path class="st1" d="M39.9,33c6.1,0,11.6-5.1,11.6-11.4C51.5,14.7,46,10,39.9,10h-8.2c-6.1,0-11.2,4.7-11.2,11.6
		c0,6.3,5.1,11.4,11.2,11.4H39.9z"/>
	<path class="st2" d="M34.2,27.1V15.9c2.3,0.9,3.9,3.1,3.9,5.6C38,24.1,36.4,26.2,34.2,27.1 M26,21.5c0-2.6,1.6-4.7,3.9-5.6v11.2
		C27.6,26.2,26,24.1,26,21.5 M32,12c-5.2,0-9.5,4.3-9.5,9.5c0,5.2,4.3,9.5,9.5,9.5c5.2,0,9.5-4.3,9.5-9.5C41.5,16.3,37.2,12,32,12"
		/>
</g>
</svg>
