<?xml version="1.0" encoding="utf-8"?>
<!-- Generator: Adobe Illustrator 19.2.0, SVG Export Plug-In . SVG Version: 6.00 Build 0)  -->
<!DOCTYPE svg PUBLIC "-//W3C//DTD SVG 1.1//EN" "http://www.w3.org/Graphics/SVG/1.1/DTD/svg11.dtd">
<svg version="1.1" id="Layer_1" xmlns="http://www.w3.org/2000/svg" xmlns:xlink="http://www.w3.org/1999/xlink" x="0px" y="0px"
	 viewBox="0 0 72 44" style="enable-background:new 0 0 72 44;" xml:space="preserve">
<style type="text/css">
	.st0{fill:#25257C;}
	.st1{fill:#FCB131;}
	.st2{fill:#ED1C2E;}
</style>
<g>
	<path class="st0" d="M72,40c0,2.2-1.8,4-4,4H4c-2.2,0-4-1.8-4-4V4c0-2.2,1.8-4,4-4h64c2.2,0,4,1.8,4,4V40z"/>
	<g>
		<circle class="st1" cx="44.8" cy="22" r="14"/>
		<circle class="st2" cx="27" cy="22" r="14"/>
		<g>
			<path class="st1" d="M33.5,14H42v-3h-6C35.1,12,34.2,13,33.5,14z"/>
			<path class="st1" d="M42,20H31.2c-0.1,1-0.2,1-0.2,2h11V20z"/>
			<path class="st1" d="M42,30v-2h-9.6c0.3,1,0.7,1,1.2,2H42z"/>
			<path class="st1" d="M42,26v-2H31.2c0.1,1,0.2,1,0.4,2H42z"/>
			<path class="st1" d="M42,16h-9.6c-0.3,1-0.6,1-0.8,2H42V16z"/>
		</g>
	</g>
</g>
</svg>
